<?xml version="1.0" encoding="UTF-8"?>
<svg width="50px" height="93px" viewBox="0 0 50 93" version="1.1" xmlns="http://www.w3.org/2000/svg" xmlns:xlink="http://www.w3.org/1999/xlink">
    <!-- Generator: Sketch 52.6 (67491) - http://www.bohemiancoding.com/sketch -->
    <title>signal</title>
    <desc>Created with Sketch.</desc>
    <g id="Page-1" stroke="none" stroke-width="1" fill="none" fill-rule="evenodd">
        <path d="M19.7270789,82.7773314 C19.888229,82.5783629 20.0617098,82.3855053 20.2475213,82.1996938 C29.7475213,72.7996938 34.9475213,60.1996938 34.9475213,46.7996938 C34.9475213,33.3996938 29.7475213,20.7996938 20.2475213,11.3996938 C19.9984918,11.1506644 19.7716108,10.8889786 19.5668783,10.6168879 L29.4647154,0.719050789 C29.7368061,0.923783347 29.9984918,1.15066436 30.2475213,1.39969383 C42.3475213,13.4996938 49.0475213,29.5996938 49.0475213,46.7996938 C49.0475213,63.9996938 42.3475213,80.0996938 30.2475213,92.1996938 C30.0654269,92.3885325 29.8751453,92.5646354 29.67775,92.7280026 L19.7270789,82.7773314 Z M0.919212584,63.9694651 C1.08257977,63.7720699 1.25868268,63.5817882 1.44752131,63.3996938 C10.5475213,54.2996938 10.5475213,39.3996938 1.34752131,30.1996938 C1.11587103,29.9680436 0.903385702,29.7254419 0.710065317,29.4737009 L10.6215283,19.5622378 C10.8732694,19.7555582 11.115871,19.9680436 11.3475213,20.1996938 C26.0475213,34.8996938 26.0475213,58.6996938 11.4475213,73.3996938 C11.2617098,73.5855053 11.0688522,73.7589861 10.8698837,73.9201362 L0.919212584,63.9694651 Z" id="signal" fill="#F27F3A"></path>
    </g>
</svg>